<?xml version="1.0" encoding="utf-8"?>
<!-- Generator: Adobe Illustrator 21.0.0, SVG Export Plug-In . SVG Version: 6.00 Build 0)  -->
<svg version="1.1" id="Ebene_1" xmlns="http://www.w3.org/2000/svg" xmlns:xlink="http://www.w3.org/1999/xlink" x="0px" y="0px"
	 viewBox="0 0 65.2 65.2" style="enable-background:new 0 0 65.2 65.2;" xml:space="preserve">
<style type="text/css">
	.st0{fill:#FFCD09;}
</style>
<path class="st0" d="M32.6,0C14.6,0,0,14.6,0,32.6c0,18,14.6,32.6,32.6,32.6c18,0,32.6-14.6,32.6-32.6C65.2,14.6,50.6,0,32.6,0z"/>
<g id="Ebene_2">
	<path d="M24.9,47.2c-0.2-0.1-3.3-5.8-4.9-8.9h-0.2c-1.6,3.1-4.6,8.8-4.8,8.8c-1.3,0.2-6.5-1.3-6.5-1.6c-0.1-0.3,5.1-9.7,6.6-12.3
		C14.8,33,8.9,22.5,8.9,22c0-0.5,5.7-2.1,6.2-2c0.2,0.1,3.3,5.7,4.6,8.8H20c1.6-3,4.7-8.8,5-8.8c0.4,0,6,1.5,6.1,1.9
		c0,0.5-5.9,11-6.2,11.4c1.4,2.4,6.7,11.7,6.7,12"/>
</g>
<g id="Ebene_3">
	<path d="M51.4,47.2c-0.2-0.1-3.3-5.8-4.9-8.9h-0.2c-1.6,3.1-4.6,8.8-4.8,8.8c-1.3,0.2-6.5-1.3-6.5-1.6c-0.1-0.3,5.1-9.7,6.6-12.3
		c-0.2-0.3-6.1-10.9-6-11.4c0-0.5,5.7-2.1,6.2-2c0.2,0.1,3.3,5.7,4.6,8.8h0.2c1.6-3,4.7-8.8,5-8.8c0.4,0,6,1.5,6.1,1.9
		c0,0.5-5.9,11-6.2,11.4c1.4,2.4,6.7,11.7,6.7,12"/>
</g>
</svg>
